<?xml version="1.0" encoding="UTF-8" standalone="no"?>
<svg
   xmlns:dc="http://purl.org/dc/elements/1.1/"
   xmlns:cc="http://creativecommons.org/ns#"
   xmlns:rdf="http://www.w3.org/1999/02/22-rdf-syntax-ns#"
   xmlns:svg="http://www.w3.org/2000/svg"
   xmlns="http://www.w3.org/2000/svg"
   xmlns:sodipodi="http://sodipodi.sourceforge.net/DTD/sodipodi-0.dtd"
   xmlns:inkscape="http://www.inkscape.org/namespaces/inkscape"
   viewBox="0 0 1000 235"
   height="235"
   width="1000"
   xml:space="preserve"
   id="svg2"
   version="1.1"
   sodipodi:docname="told.svg"
   inkscape:version="1.1-dev (a1a64ec, 2020-05-08)"><sodipodi:namedview
     width="1201.3332px"
     pagecolor="#ffffff"
     bordercolor="#666666"
     borderopacity="1"
     objecttolerance="10"
     gridtolerance="10"
     guidetolerance="10"
     inkscape:pageopacity="0"
     inkscape:pageshadow="2"
     inkscape:window-width="1280"
     inkscape:window-height="755"
     id="namedview3485"
     showgrid="false"
     inkscape:zoom="0.6125"
     inkscape:cx="857.80949"
     inkscape:cy="382.85714"
     inkscape:window-x="0"
     inkscape:window-y="23"
     inkscape:window-maximized="1"
     inkscape:current-layer="svg2" /><metadata
     id="metadata8"><rdf:RDF><cc:Work
         rdf:about=""><dc:format>image/svg+xml</dc:format><dc:type
           rdf:resource="http://purl.org/dc/dcmitype/StillImage" /></cc:Work></rdf:RDF></metadata><defs
     id="defs6"><clipPath
       id="clipPath252"
       clipPathUnits="userSpaceOnUse"><path
         id="path250"
         d="M 7599.25,757.359 H 1379.1 V 1256.75 H 7599.25 V 795.281 757.359" /></clipPath><linearGradient
       id="linearGradient258"
       spreadMethod="pad"
       gradientTransform="matrix(6220.15,0,0,-6220.15,1379.1,1173.07)"
       gradientUnits="userSpaceOnUse"
       y2="0"
       x2="1"
       y1="0"
       x1="0"><stop
         id="stop254"
         offset="0"
         style="stop-opacity:1;stop-color:#f03a1f" /><stop
         id="stop256"
         offset="1"
         style="stop-opacity:1;stop-color:#ef3021" /></linearGradient><clipPath
       id="clipPath274"
       clipPathUnits="userSpaceOnUse"><path
         id="path272"
         d="m 1379.1,1256.75 h 6220.15 v 254.371 H 1379.1 Z" /></clipPath><linearGradient
       id="linearGradient280"
       spreadMethod="pad"
       gradientTransform="matrix(6220.15,0,0,-6220.15,1379.1,1173.07)"
       gradientUnits="userSpaceOnUse"
       y2="0"
       x2="1"
       y1="0"
       x1="0"><stop
         id="stop276"
         offset="0"
         style="stop-opacity:1;stop-color:#b63321" /><stop
         id="stop278"
         offset="1"
         style="stop-opacity:1;stop-color:#b62b22" /></linearGradient><clipPath
       id="clipPath320"
       clipPathUnits="userSpaceOnUse"><path
         id="path318"
         d="M 1379.86,2138.44 H 2562.22 V 3548.02 H 1379.86 Z" /></clipPath><clipPath
       id="clipPath664"
       clipPathUnits="userSpaceOnUse"><path
         id="path662"
         d="M 2672.52,2077.09 H 3826.51 V 3615.14 H 2672.52 Z" /></clipPath><clipPath
       id="clipPath1320"
       clipPathUnits="userSpaceOnUse"><path
         id="path1318"
         d="M 5231.37,2188.72 H 6376.65 V 3473.3 H 5231.37 Z" /></clipPath><clipPath
       id="clipPath1728"
       clipPathUnits="userSpaceOnUse"><path
         id="path1726"
         d="M 6522.77,2188.72 H 7668.04 V 3473.3 H 6522.77 Z" /></clipPath><clipPath
       id="clipPath2136"
       clipPathUnits="userSpaceOnUse"><path
         id="path2134"
         d="M 3959.02,2142.65 H 5125.4 V 3590.71 H 3959.02 Z" /></clipPath><clipPath
       id="clipPath3806"
       clipPathUnits="userSpaceOnUse"><path
         id="path3804"
         d="M 5268.49,3705.62 H 6407.96 V 4983.7 H 5268.49 Z" /></clipPath><clipPath
       id="clipPath4748"
       clipPathUnits="userSpaceOnUse"><path
         id="path4746"
         d="M 6502.63,3705.62 H 7642.09 V 4983.7 H 6502.63 Z" /></clipPath><clipPath
       id="clipPath5336"
       clipPathUnits="userSpaceOnUse"><path
         id="path5334"
         d="M 5268.49,4929.2 H 6407.96 V 6207.3 H 5268.49 Z" /></clipPath><clipPath
       id="clipPath5462"
       clipPathUnits="userSpaceOnUse"><path
         id="path5460"
         d="M 5268.49,4929.2 H 6407.96 V 6207.3 H 5268.49 Z" /></clipPath><clipPath
       id="clipPath5916"
       clipPathUnits="userSpaceOnUse"><path
         id="path5914"
         d="M 6502.63,4929.21 H 7642.09 V 6207.3 H 6502.63 Z" /></clipPath></defs><path
     id="path16"
     style="fill:#7b1f33;fill-opacity:1;fill-rule:nonzero;stroke:none;stroke-width:0.133333"
     d="M 899.0706,35.915482 V 144.09281 l -795.26665,0.001 V 35.915482" /><path
     id="path6384"
     style="fill:#c8723e;fill-opacity:1;fill-rule:nonzero;stroke:none;stroke-width:0.133333"
     d="M 899.0706,44.178152 H 103.80395 V 0.860812 H 899.0706 v 43.31734" /><path
     id="path6898"
     style="fill:#f14c38;fill-opacity:1;fill-rule:nonzero;stroke:none;stroke-width:0.133333"
     d="M 116.00528,56.675482 C 61.774612,103.61414 29.072342,136.57014 0.900343,184.15014 c 41.632929,0 83.259607,0 124.892937,0 30.19067,-46.932 45.752,-80.536 86.45733,-127.474658 -32.076,0 -64.156,0 -96.24533,0" /><path
     id="path6900"
     style="fill:#edeff0;fill-opacity:1;fill-rule:nonzero;stroke:none;stroke-width:0.133333"
     d="m 212.25061,56.675482 c -40.692,46.938658 -56.26666,80.542658 -86.45733,127.474658 41.63733,0 83.27067,0 124.90533,0 20.17333,-46.932 30.61333,-80.536 57.81867,-127.474658 -32.07334,0 -64.172,0 -96.26667,0" /><path
     id="path6902"
     style="fill:#f14c38;fill-opacity:1;fill-rule:nonzero;stroke:none;stroke-width:0.133333"
     d="m 308.51728,56.675482 c -27.20534,46.938658 -37.64534,80.542658 -57.81867,127.474658 41.62667,0 83.27067,0 124.9,0 10.172,-46.932 15.48533,-80.536 29.17733,-127.474658 -32.07467,0 -64.18666,0 -96.25866,0" /><path
     id="path6904"
     style="fill:#edeff0;fill-opacity:1;fill-rule:nonzero;stroke:none;stroke-width:0.133333"
     d="m 404.77594,56.675482 c -13.692,46.938658 -19.00533,80.542658 -29.17733,127.474658 41.64133,0 83.26933,0 124.90266,0 0.16667,-46.932 0.352,-80.536 0.52667,-127.474658 -32.08133,0 -64.17067,0 -96.252,0" /><path
     id="path6906"
     style="fill:#f14c38;fill-opacity:1;fill-rule:nonzero;stroke:none;stroke-width:0.133333"
     d="m 501.02794,56.675482 c -0.17467,46.938658 -0.36,80.542658 -0.52667,127.474658 41.63067,0 83.26267,0 124.904,0 -9.856,-46.932 -14.77733,-80.536 -28.12533,-127.474658 -32.072,0 -64.16267,0 -96.252,0" /><path
     id="path6908"
     style="fill:#edeff0;fill-opacity:1;fill-rule:nonzero;stroke:none;stroke-width:0.133333"
     d="m 597.27994,56.675482 c 13.348,46.938658 18.26933,80.542658 28.12533,127.474658 41.628,0 83.26533,0 124.9,0 -19.848,-46.932 -29.91467,-80.536 -56.77067,-127.474658 -32.084,0 -64.168,0 -96.25466,0" /><path
     id="path6910"
     style="fill:#f14c38;fill-opacity:1;fill-rule:nonzero;stroke:none;stroke-width:0.133333"
     d="m 693.5346,56.675482 c 26.856,46.938658 36.92267,80.542658 56.77067,127.474658 41.63199,0 83.26533,0 124.90666,0 -29.86533,-46.932 -45.052,-80.536 -85.42267,-127.474658 -32.08799,0 -64.16933,0 -96.25466,0" /><path
     id="path6912"
     style="fill:#edeff0;fill-opacity:1;fill-rule:nonzero;stroke:none;stroke-width:0.133333"
     d="m 875.21193,184.15014 c 41.62669,0 83.26529,0 124.89467,0 -30.12398,-47.58 -60.17998,-80.536 -114.05734,-127.474658 -32.08933,0 -64.16933,0 -96.26,0 40.37067,46.938658 55.55734,80.542658 85.42267,127.474658" /><path
     id="path6914"
     style="fill:#b6a5c6;fill-opacity:1;fill-rule:nonzero;stroke:none;stroke-width:0.133333"
     d="m 500.78127,183.79548 c 0,0 0,10.67466 0,23.72133 0,13.048 -14.88933,23.72266 -33.08533,23.72266 h -59.01333 c -18.196,0 -33.084,-10.67466 -33.084,-23.72266 0,-13.04667 0,-23.72133 0,-23.72133" /><path
     id="path6916"
     style="fill:#d63123;fill-opacity:1;fill-rule:nonzero;stroke:none;stroke-width:0.133333"
     d="m 625.77327,183.79548 c 0,0 0,10.67466 0,23.72133 0,13.048 -14.888,23.72266 -33.084,23.72266 h -59.01333 c -18.196,0 -33.084,-10.67466 -33.084,-23.72266 0,-13.04667 0,-23.72133 0,-23.72133" /><path
     id="path6918"
     style="fill:#b6a5c6;fill-opacity:1;fill-rule:nonzero;stroke:none;stroke-width:0.133333"
     d="m 749.72127,183.79548 c 0,0 0,10.67466 0,23.72133 0,13.048 -14.888,23.72266 -33.08534,23.72266 h -59.01066 c -18.196,0 -33.08533,-10.67466 -33.08533,-23.72266 0,-13.04667 0,-23.72133 0,-23.72133" /><path
     id="path6920"
     style="fill:#d63123;fill-opacity:1;fill-rule:nonzero;stroke:none;stroke-width:0.133333"
     d="m 875.55193,183.52214 c 0,0 0,10.67467 0,23.72267 0,13.04667 -14.80133,23.72133 -32.89333,23.72133 h -60.044 c -18.092,0 -32.89333,-10.67466 -32.89333,-23.72133 0,-13.048 0,-23.72267 0,-23.72267" /><path
     id="path6922"
     style="fill:#b6a5c6;fill-opacity:1;fill-rule:nonzero;stroke:none;stroke-width:0.133333"
     d="m 1000.1266,183.52214 c 0,0 0,10.67467 0,23.72267 0,13.04667 -15.2934,23.72133 -33.98668,23.72133 h -57.648 c -18.69332,0 -33.98666,-10.67466 -33.98666,-23.72133 0,-13.048 0,-23.72267 0,-23.72267" /><path
     id="path6924"
     style="fill:#d63123;fill-opacity:1;fill-rule:nonzero;stroke:none;stroke-width:0.133333"
     d="m 375.59861,183.79548 c 0,0 0,10.67466 0,23.72133 0,13.048 -14.804,23.72266 -32.896,23.72266 h -59.64133 c -18.092,0 -32.896,-10.67466 -32.896,-23.72266 0,-13.04667 0,-23.72133 0,-23.72133" /><path
     id="path6926"
     style="fill:#b6a5c6;fill-opacity:1;fill-rule:nonzero;stroke:none;stroke-width:0.133333"
     d="m 251.42128,183.79548 c 0,0 0,10.67466 0,23.72133 0,13.048 -14.88933,23.72266 -33.08533,23.72266 h -60.708 c -18.19734,0 -33.08534,-10.67466 -33.08534,-23.72266 0,-13.04667 0,-23.72133 0,-23.72133" /><path
     id="path6928"
     style="fill:#d63123;fill-opacity:1;fill-rule:nonzero;stroke:none;stroke-width:0.133333"
     d="m 125.79861,183.79548 c 0,0 0,10.67466 0,23.72133 0,13.048 -14.888,23.72266 -33.08533,23.72266 H 33.701412 c -18.1968,0 -33.084802,-10.67466 -33.084802,-23.72266 0,-13.04667 0,-23.72133 0,-23.72133" /><path
     id="path6930"
     style="fill:#7b1f33;fill-opacity:1;fill-rule:nonzero;stroke:none;stroke-width:0.133333"
     d="M 103.80395,58.918152 H 899.0706 v -16.336 H 103.80395 Z" /></svg>
